<mxfile host="app.diagrams.net" agent="Mozilla/5.0 (Windows NT 10.0; Win64; x64; rv:131.0) Gecko/20100101 Firefox/131.0" version="24.7.17">
  <diagram name="Page-1" id="SYYBHmbiaiyCnL7nscSl">
    <mxGraphModel dx="917" dy="610" grid="1" gridSize="10" guides="1" tooltips="1" connect="1" arrows="1" fold="1" page="1" pageScale="1" pageWidth="850" pageHeight="1100" math="0" shadow="0">
      <root>
        <mxCell id="0" />
        <mxCell id="1" parent="0" />
        <mxCell id="t6XPNBep0zWWlQ3QRWh1-1" value="&lt;div&gt;DB&lt;/div&gt;" style="shape=cylinder3;whiteSpace=wrap;html=1;boundedLbl=1;backgroundOutline=1;size=15;" vertex="1" parent="1">
          <mxGeometry x="50" y="225" width="60" height="80" as="geometry" />
        </mxCell>
        <mxCell id="t6XPNBep0zWWlQ3QRWh1-5" value="" style="rounded=0;whiteSpace=wrap;html=1;" vertex="1" parent="1">
          <mxGeometry x="230" y="130" width="260" height="150" as="geometry" />
        </mxCell>
        <mxCell id="t6XPNBep0zWWlQ3QRWh1-6" value="Service" style="rounded=0;whiteSpace=wrap;html=1;" vertex="1" parent="1">
          <mxGeometry x="230" y="250" width="80" height="30" as="geometry" />
        </mxCell>
        <mxCell id="t6XPNBep0zWWlQ3QRWh1-4" value="Rest" style="rounded=0;whiteSpace=wrap;html=1;" vertex="1" parent="1">
          <mxGeometry x="410" y="160" width="80" height="30" as="geometry" />
        </mxCell>
        <mxCell id="t6XPNBep0zWWlQ3QRWh1-2" value="Service" style="rounded=0;whiteSpace=wrap;html=1;" vertex="1" parent="1">
          <mxGeometry x="410" y="215" width="80" height="30" as="geometry" />
        </mxCell>
        <mxCell id="t6XPNBep0zWWlQ3QRWh1-7" value="Model" style="text;html=1;align=center;verticalAlign=middle;whiteSpace=wrap;rounded=0;" vertex="1" parent="1">
          <mxGeometry x="230" y="160" width="60" height="30" as="geometry" />
        </mxCell>
        <mxCell id="t6XPNBep0zWWlQ3QRWh1-8" value="Manager" style="text;html=1;align=center;verticalAlign=middle;whiteSpace=wrap;rounded=0;" vertex="1" parent="1">
          <mxGeometry x="330" y="160" width="60" height="30" as="geometry" />
        </mxCell>
        <mxCell id="t6XPNBep0zWWlQ3QRWh1-9" value="Repository" style="text;html=1;align=center;verticalAlign=middle;whiteSpace=wrap;rounded=0;" vertex="1" parent="1">
          <mxGeometry x="320" y="210" width="60" height="30" as="geometry" />
        </mxCell>
        <mxCell id="t6XPNBep0zWWlQ3QRWh1-10" value="KeyCloak" style="rounded=0;whiteSpace=wrap;html=1;" vertex="1" parent="1">
          <mxGeometry x="210" y="370" width="120" height="40" as="geometry" />
        </mxCell>
        <mxCell id="t6XPNBep0zWWlQ3QRWh1-11" value="" style="whiteSpace=wrap;html=1;aspect=fixed;direction=south;" vertex="1" parent="1">
          <mxGeometry x="600" y="130" width="90" height="90" as="geometry" />
        </mxCell>
        <mxCell id="t6XPNBep0zWWlQ3QRWh1-12" value="Socket" style="rounded=0;whiteSpace=wrap;html=1;" vertex="1" parent="1">
          <mxGeometry x="600" y="185" width="60" height="20" as="geometry" />
        </mxCell>
        <mxCell id="t6XPNBep0zWWlQ3QRWh1-13" value="Api" style="rounded=0;whiteSpace=wrap;html=1;" vertex="1" parent="1">
          <mxGeometry x="600" y="150" width="60" height="20" as="geometry" />
        </mxCell>
        <mxCell id="t6XPNBep0zWWlQ3QRWh1-18" value="Lit" style="rounded=0;whiteSpace=wrap;html=1;" vertex="1" parent="1">
          <mxGeometry x="690" y="155" width="50" height="40" as="geometry" />
        </mxCell>
        <mxCell id="t6XPNBep0zWWlQ3QRWh1-19" value="" style="triangle;whiteSpace=wrap;html=1;rotation=-180;" vertex="1" parent="1">
          <mxGeometry x="740" y="155" width="40" height="40" as="geometry" />
        </mxCell>
        <mxCell id="t6XPNBep0zWWlQ3QRWh1-26" value="" style="whiteSpace=wrap;html=1;aspect=fixed;direction=south;" vertex="1" parent="1">
          <mxGeometry x="600" y="250" width="90" height="90" as="geometry" />
        </mxCell>
        <mxCell id="t6XPNBep0zWWlQ3QRWh1-27" value="Socket" style="rounded=0;whiteSpace=wrap;html=1;" vertex="1" parent="1">
          <mxGeometry x="600" y="305" width="60" height="20" as="geometry" />
        </mxCell>
        <mxCell id="t6XPNBep0zWWlQ3QRWh1-28" value="Api" style="rounded=0;whiteSpace=wrap;html=1;" vertex="1" parent="1">
          <mxGeometry x="600" y="270" width="60" height="20" as="geometry" />
        </mxCell>
        <mxCell id="t6XPNBep0zWWlQ3QRWh1-29" value="Lit" style="rounded=0;whiteSpace=wrap;html=1;" vertex="1" parent="1">
          <mxGeometry x="690" y="275" width="50" height="40" as="geometry" />
        </mxCell>
        <mxCell id="t6XPNBep0zWWlQ3QRWh1-30" value="" style="triangle;whiteSpace=wrap;html=1;rotation=-180;" vertex="1" parent="1">
          <mxGeometry x="740" y="275" width="40" height="40" as="geometry" />
        </mxCell>
        <mxCell id="t6XPNBep0zWWlQ3QRWh1-31" value="" style="curved=0;endArrow=classic;html=1;rounded=1;exitX=0.006;exitY=0.314;exitDx=0;exitDy=0;exitPerimeter=0;entryX=1;entryY=0.5;entryDx=0;entryDy=0;entryPerimeter=0;" edge="1" parent="1" source="t6XPNBep0zWWlQ3QRWh1-5" target="t6XPNBep0zWWlQ3QRWh1-1">
          <mxGeometry width="50" height="50" relative="1" as="geometry">
            <mxPoint x="130" y="250" as="sourcePoint" />
            <mxPoint x="180" y="200" as="targetPoint" />
            <Array as="points">
              <mxPoint x="160" y="230" />
              <mxPoint x="170" y="200" />
            </Array>
          </mxGeometry>
        </mxCell>
        <mxCell id="t6XPNBep0zWWlQ3QRWh1-32" value="Hibernate" style="text;html=1;align=center;verticalAlign=middle;whiteSpace=wrap;rounded=0;" vertex="1" parent="1">
          <mxGeometry x="120" y="165" width="60" height="30" as="geometry" />
        </mxCell>
        <mxCell id="t6XPNBep0zWWlQ3QRWh1-33" value="" style="endArrow=classic;html=1;rounded=0;exitX=0.5;exitY=0;exitDx=0;exitDy=0;entryX=0.5;entryY=1;entryDx=0;entryDy=0;" edge="1" parent="1" source="t6XPNBep0zWWlQ3QRWh1-10" target="t6XPNBep0zWWlQ3QRWh1-6">
          <mxGeometry width="50" height="50" relative="1" as="geometry">
            <mxPoint x="400" y="330" as="sourcePoint" />
            <mxPoint x="310" y="320" as="targetPoint" />
          </mxGeometry>
        </mxCell>
        <mxCell id="t6XPNBep0zWWlQ3QRWh1-34" value="" style="endArrow=classic;html=1;rounded=0;exitX=1;exitY=0.5;exitDx=0;exitDy=0;entryX=1;entryY=0.75;entryDx=0;entryDy=0;" edge="1" parent="1" source="t6XPNBep0zWWlQ3QRWh1-26" target="t6XPNBep0zWWlQ3QRWh1-10">
          <mxGeometry width="50" height="50" relative="1" as="geometry">
            <mxPoint x="550" y="380" as="sourcePoint" />
            <mxPoint x="450" y="280" as="targetPoint" />
          </mxGeometry>
        </mxCell>
        <mxCell id="t6XPNBep0zWWlQ3QRWh1-35" value="" style="endArrow=classic;html=1;rounded=0;exitX=1;exitY=0.5;exitDx=0;exitDy=0;entryX=1;entryY=0.25;entryDx=0;entryDy=0;" edge="1" parent="1" source="t6XPNBep0zWWlQ3QRWh1-11" target="t6XPNBep0zWWlQ3QRWh1-10">
          <mxGeometry width="50" height="50" relative="1" as="geometry">
            <mxPoint x="655" y="350" as="sourcePoint" />
            <mxPoint x="340" y="400" as="targetPoint" />
          </mxGeometry>
        </mxCell>
        <mxCell id="t6XPNBep0zWWlQ3QRWh1-36" value="" style="endArrow=none;html=1;rounded=0;curved=1;exitX=0.75;exitY=1;exitDx=0;exitDy=0;entryX=0;entryY=0.5;entryDx=0;entryDy=0;" edge="1" parent="1" source="t6XPNBep0zWWlQ3QRWh1-7" target="t6XPNBep0zWWlQ3QRWh1-9">
          <mxGeometry width="50" height="50" relative="1" as="geometry">
            <mxPoint x="400" y="330" as="sourcePoint" />
            <mxPoint x="450" y="280" as="targetPoint" />
          </mxGeometry>
        </mxCell>
        <mxCell id="t6XPNBep0zWWlQ3QRWh1-37" value="" style="endArrow=none;html=1;rounded=0;curved=1;exitX=0.5;exitY=1;exitDx=0;exitDy=0;entryX=0.5;entryY=0;entryDx=0;entryDy=0;" edge="1" parent="1" source="t6XPNBep0zWWlQ3QRWh1-7" target="t6XPNBep0zWWlQ3QRWh1-6">
          <mxGeometry width="50" height="50" relative="1" as="geometry">
            <mxPoint x="285" y="200" as="sourcePoint" />
            <mxPoint x="330" y="235" as="targetPoint" />
          </mxGeometry>
        </mxCell>
        <mxCell id="t6XPNBep0zWWlQ3QRWh1-38" value="" style="endArrow=classic;html=1;rounded=0;entryX=0;entryY=0.75;entryDx=0;entryDy=0;exitX=1;exitY=0.5;exitDx=0;exitDy=0;" edge="1" parent="1" source="t6XPNBep0zWWlQ3QRWh1-2" target="t6XPNBep0zWWlQ3QRWh1-12">
          <mxGeometry width="50" height="50" relative="1" as="geometry">
            <mxPoint x="400" y="330" as="sourcePoint" />
            <mxPoint x="450" y="280" as="targetPoint" />
          </mxGeometry>
        </mxCell>
        <mxCell id="t6XPNBep0zWWlQ3QRWh1-39" value="" style="endArrow=classic;html=1;rounded=0;entryX=0;entryY=0.5;entryDx=0;entryDy=0;exitX=1;exitY=0.5;exitDx=0;exitDy=0;" edge="1" parent="1" source="t6XPNBep0zWWlQ3QRWh1-2" target="t6XPNBep0zWWlQ3QRWh1-27">
          <mxGeometry width="50" height="50" relative="1" as="geometry">
            <mxPoint x="500" y="240" as="sourcePoint" />
            <mxPoint x="610" y="210" as="targetPoint" />
          </mxGeometry>
        </mxCell>
        <mxCell id="t6XPNBep0zWWlQ3QRWh1-40" value="" style="endArrow=classic;startArrow=classic;html=1;rounded=0;entryX=0;entryY=0.5;entryDx=0;entryDy=0;exitX=1;exitY=0.5;exitDx=0;exitDy=0;" edge="1" parent="1" source="t6XPNBep0zWWlQ3QRWh1-4" target="t6XPNBep0zWWlQ3QRWh1-13">
          <mxGeometry width="50" height="50" relative="1" as="geometry">
            <mxPoint x="400" y="330" as="sourcePoint" />
            <mxPoint x="450" y="280" as="targetPoint" />
          </mxGeometry>
        </mxCell>
        <mxCell id="t6XPNBep0zWWlQ3QRWh1-41" value="" style="endArrow=classic;startArrow=classic;html=1;rounded=0;" edge="1" parent="1">
          <mxGeometry width="50" height="50" relative="1" as="geometry">
            <mxPoint x="490" y="180" as="sourcePoint" />
            <mxPoint x="600" y="280" as="targetPoint" />
          </mxGeometry>
        </mxCell>
      </root>
    </mxGraphModel>
  </diagram>
</mxfile>
